<?xml version="1.0" encoding="utf-8"?>
<!-- Generator: Adobe Illustrator 27.3.1, SVG Export Plug-In . SVG Version: 6.00 Build 0)  -->
<svg version="1.1" id="Coke" xmlns="http://www.w3.org/2000/svg" xmlns:xlink="http://www.w3.org/1999/xlink" x="0px" y="0px"
	 viewBox="0 0 1000 1000" style="enable-background:new 0 0 1000 1000;" xml:space="preserve">
<style type="text/css">
	.st0{fill:#7B002B;}
	.st1{fill:#FFFFFF;}
	.st2{fill:#F40009;}
	.st3{fill:#008B47;}
	.st4{fill:#01340E;}
	.st5{fill:#FF9413;}
	.st6{fill:#F6C500;}
	.st7{fill-rule:evenodd;clip-rule:evenodd;fill:#FFFFFF;}
</style>
<g>
	<rect x="-1467.4" y="-203.5" class="st0" width="1000" height="1000"/>
	<g>
		<g>
			<g>
				<path class="st1" d="M-653.2,143.9c-6.7,0-12.1,5.4-12.1,12.1s5.4,12.1,12.1,12.1s12.1-5.4,12.1-12.1S-646.6,143.9-653.2,143.9z
					 M-648.8,165.7c-5.4,2.5-11.7,0.1-14.1-5.3c-2.4-5.3-0.1-11.6,5.2-14.1c5.4-2.4,11.7-0.1,14.2,5.2
					C-641.1,156.9-643.4,163.2-648.8,165.7z"/>
			</g>
		</g>
		<g>
			<g>
				<path class="st1" d="M-1103.9,184.2c-2.1-24-17.5-48.4-69-24.6l-91.4,42v2.8c16.9,6.5,16.1,39,16.1,39v168.8
					c0,21.1-11.5,33.9-11.5,33.9v3.6l83.7-38.5v-3.1c-22.5,5.4-22-35.1-22-35.1V207.8l18.4-9.2c14.2-7.1,25.1,7.5,25.4,18.5
					c0.7,25.2-10.8,50.8-30.3,65.9v5.1c14.4-6,28.5-13.7,42.4-21.9C-1113.7,249.2-1101.2,214.2-1103.9,184.2z"/>
			</g>
		</g>
		<g>
			<g>
				<path class="st1" d="M-679.8,76.2V65.4l-1.9-2c-2.8,4.2-9.1,7.6-9.1,7.6l-36.3,16.7c8.8,5.6,10,16,10,16v72.9
					c0,14.9-5.8,22.7-5.8,22.7v4.2l51.3-24.5v-2.3c-8-4.8-8-14.5-8-14.5v-56.3c8.2-19.9,30.2-23.7,30.2-23.7V50.7
					C-667.4,50.5-679.8,76.2-679.8,76.2z"/>
			</g>
		</g>
		<g>
			<g>
				<path class="st1" d="M-898.9,40.1V29.3l-2-2c-2.8,4.2-9.1,7.6-9.1,7.6l-36.2,16.7c8.7,5.6,9.9,16,9.9,16v72.9
					c0,14.9-5.8,22.7-5.8,22.7v4.2l51.3-24.5v-2.3c-7.9-4.8-7.9-14.5-7.9-14.5V69.8c8.1-19.9,30.2-23.7,30.2-23.7V14.6
					C-886.6,14.4-898.9,40.1-898.9,40.1z"/>
			</g>
		</g>
		<g>
			<g>
				<path class="st1" d="M-575.8,217.9c-2.2-4.7-2.8-1.3-2.8,1.3c0,2.5-2.8,3.2-5.4,3.2c-2.5,0-3.7,1.3-5.1,3.4
					c-1.2,2.3-9.5,5.1-16.1,7.3c-6.6,2.2-6.6,7.9-8.8,11.7c-2.2,3.7-5.4,6-6.3,0.3c-0.9-5.7-5.4,0-9.8,2.2c-4.4,2.3-2.5,4.4-7.2-0.3
					s-4.7-0.4-4.7-0.4s1.6,2.6-4.2,2.6c-5.6,0-14.8,8.5-17.7,10.1c-2.8,1.6-6.3,4.2-7.9-1.6c-1.6-5.6-2.8-3.2-5.3-5.3
					c-2.6-2.3-4.2-2.6-9.8-0.3c-5.7,2.2-4.4,12.6-4.4,14.9c0,2.1-1.9,6.6-3.2,2.1c-1.3-4.4-4.7-3.5-9.2-4.7
					c-4.4-1.2-16,7.3-18.3,9.5c-2.3,2.3-3.8,5.4-5.1,1c-1.2-4.5-1.6-12.4-5.1-11c-3.5,1.3-4.1,3.7-1.9,4.1c2.3,0.3,2.9,2.3,2.9,7.6
					c0,5.4-11,6-15.8,6.3c-4.7,0.3-5.1,5.3-9.8,3.7c-4.7-1.6-6.6,6-8.2,3.2c-1.6-2.8-5.6-0.7-5.6-0.7c-15.2,1.9-25.9,15.8-28.7,10.5
					c-2.9-5.4-1,2.5-2.9,2.5c-1.8,0-3.7,3.2-3.7,3.2c-1.6-5.1-6-1.6-6-1.6s-10.8,7.6-13.6,9.8s-10.7,3.5-15.1,2.5
					c-4.5-0.9-5.1,2.9-5.1,2.9s0.6,4.4-3.2,0.9c-3.8-3.5-3.5,0.3-4.4,4.1c-1,3.8-2.9,6.6-6.6,6.6c-3.8,0-3.5-4.7-3.5-8.5
					c0-3.8-1.6-3.2-2.8-1.6c-1.3,1.6-2.6,1.2-5.4-1c-2.8-2.1,1.9-6.6,4.7-8.5c2.8-1.9,4.4-3.5,1.2-4.7c-3.2-1.3-4.1,1.6-5.3,3.4
					c-1.3,1.9-6.7,3.8-10.1,6.3c-3.5,2.6-5.1,6.1-7,13c-1.8,7-4.4,2.9-4.4,2.9s-2.2-5.4-3.5-9.6c-1.2-4.1-2.8,1.6-5,4.5
					c-2.2,2.8,0.9,7.9,3.4,8.2c2.6,0.3,1.6-1.3,3.2,5.3c1.6,6.6-4.4,7.9-4.4,7.9l-61,27.5v-9.1l-4.7,0.3c0.6-5.3-1.6-7.6-4.1-7.6
					s-0.9,2.2-0.9,4.7c0,2.6-7.2,2.6-13.9,1.2c-6.6-1.3-8.5,8.9-9.1,11.4c-0.6,2.6-1.9,5.1-3.5,3.2c-1.6-1.8-4.4-2.8-6.3-1.2
					c-1.9,1.6-3.5,3.5-4.7,1c-1.2-2.6-2.8-1.9-5.3,0.9c-2.6,2.8-4.7,1.9-4.7-4.4c0-6.3-1.6-2.9-4.5,2.2c-2.8,5.1,1.9,10.8,4.7,11.1
					c2.9,0.4,2.6,4.2,3.8,7c1.3,2.8-1.6,3.8-1.6,3.8s-19.3,9.5-22.1,11.1s-32.8,14.2-37.6,16.1c-4.7,1.8-6.1,2.2-6.3-1.9
					c-0.3-4.2,0-8.2,3.2-10.8c3.1-2.5,3.1-3.4-1.9-6c-5.1-2.5-8.2,6-10.7,7.6c-2.6,1.6-8,7.6-8.2,2.9c-0.3-4.7-5.1,1.6-10.8,3.5
					c-5.6,1.8-11,5-14.8,2.8c-3.8-2.2-3.5,6.6-5.4,6.9c-1.9,0.4-3.7-4.4-3.7-6.9c0-2.6-2.6-2.6-4.8-1.6c-2.2,0.9,0,5.1,1.9,6.9
					c1.9,1.9,0.3,4.2-1.9,5.7c-2.2,1.6-6.9,3.7-8.1,0.9c-1.3-2.8-4.5-1.3-6.3,0.6c-1.9,1.9-3.2,2.8-8.5,2.8c-5.3,0-14.5,1.9-20.8,6
					c-6.3,4.2-8.5,7.9-8.5,7.9V453c0-3.5-4.1,0-8.8,3.2c-4.7,3.2-12.3,8.5-21.2,9.5c-8.8,0.9-6,2.5-18.3,6.3
					c-12.3,3.7-27.5,13.2-33.8,16.7c-6.3,3.5-28.4,9.1-33.8,10.5c-5.3,1.3-7.9,3.7-9.1,6.3c-1.3,2.5-4.1,7.6-7.2,11.1
					c-3.1,3.5,0.6,4.7,1.9,2.2c1.3-2.5,4.4-3.2,6.9-1.2c2.6,1.9-3.2,8.2-3.7,11c-0.7,2.8-3.8,5.4-6.6,5.4c-2.9,0-3.5-5.4-3.5-8.2
					c0-2.8-1-2.8-3.5-0.4c-2.5,2.6-10.1,9.8-13,12.3c-2.8,2.6-2.8,6.3-2.8,6.3c1.6-1.8,6.3-2.1,6.3,0.7c0,2.8-0.7,5.6-3.8,6.6
					c-3.2,0.9-2.8,4.1-4.4,7c-1.6,2.8-4.7,7.9-6.3,10.4s-6.3,5.6-6.3,5.6l3.8,3.8c0,0,5.3,1.6,6.9-0.3c1.6-1.9,3.8-2.5,7.9-2.2
					c4.2,0.3,10.1-4.5,13.3-7.6c3.2-3.1,0.7,5.7,0.7,5.7s5.6,0.3,8.2-2.8c2.5-3.2,3.2,2.5,5.6,0.6c2.4-1.9,4.4,0.3,6-0.4
					c1.6-0.6,5.1-4.4,6.3-8.8c1.2-4.4,8.2-3.5,8.2-3.5s5.4-9.5,6.3-11.7s3.2-1.6,6.3-1.3c3.1,0.3,1.2,3.2,1.2,3.2s-5.6,5.4-8.2,6.3
					c-2.5,1-3.2,5.1-3.2,6.6c0,1.6,4.5,3.8-0.6,7s-0.3,4.4,3.7,3.7c4.2-0.6,8.2-3.4,9.2-6.6c0.9-3.2,4.7-4.2,8.5-4.2
					c3.8,0,3.8-4,6.6-4.4c2.8-0.3,5.1,0,6.3-1.9c1.2-1.9,7-3.5,7-3.5l0,0c71.6-27.8,141.7-70.9,141.1-71.7l3.2,3.2
					c56.3-22.7,91-40.4,94.1-41.9c3.1-1.5,17-11.7,19.6-13.3c2.5-1.6,7.9-0.3,13.2-2.8s5-9.2,5.6-12.6c0.6-3.5,4.7-5.1,4.7,0.3
					c0,5.3,4.4,3.7,6.6,2.5c2.2-1.2,17.4-5.6,24.3-6c7-0.3,10.7-6.3,13.9-7.6c3.2-1.3,0-4.1,2.6-6.6c2.5-2.6,6.9-1.3,9.5-0.7
					c2.5,0.7,7.2,4.7,8.8,2.8c1.6-1.8,7.9-5.6,7.9-5.6c0-2.8,2.9-6.3,2.9-6.3c8.5-0.9,9.7,3.8,13.2,1.6c3.5-2.2,5.1-7.2,5.1-10.7
					s-4.7,5.1-6.3,6.3c-1.6,1.2-9.1-0.3-14.9-2.2c-5.6-1.9-0.3-5.1,1.3-8.2c1.6-3.2,5.6-4.4,6.6-1.9c1,2.6,6.1,0.7,8.2-1.3
					c2.2-1.9,13.3-5.1,16.1-5.1s4.7,3.8,1,5.1c-3.8,1.2-4.5,3.2-4.2,5.4c0.3,2.2,4.1,5.6,4.7,1.6c0.7-4.2,9.5-8.9,12.3-11.4
					c2.9-2.5,14.9-0.9,14.9-0.9c-2.5-8.6-1.9-9.5,4.7-13.3c6.6-3.8,13.9-2.5,13.9-2.5c0-2.6,19.3-11.4,19.3-11.4l1.9,2.8
					c6.3-4,25.6-11.9,33.8-11.9c8.2,0,20.8-7,24-10.8c3.2-3.7,8.8-1.6,8.8-1.6c1.6-4.1,7.3-5.3,11.4-7.6c4.1-2.2,12.6-3.8,15.8-4.7
					c3.2-0.9,2.5-3.2,2.8-6.3c0.3-3.2,1.9-5.1,5.4-4.1c3.5,0.9,11.1,5.3,11.1,5.3s2.3-2.8,5.6-4.7c3.5-1.9,4.7-3.7,4.7-9.1
					c0-5.3,6.3-4.7,10.1-4.1c3.8,0.7,13.5,0,21.8-1.2c8.2-1.2,1.9-3.5,1.9-3.5s-5.1-1.8-10.4-4.1c-5.4-2.2,0.6-6.6,3.7-6.6
					c3.1,0,5.7-1.3,6.3-4.7c0.7-3.5,5.4,0,6.3-2.8c1-2.8,1.9-2.8,5.1-0.3c3.2,2.6,7.3,10.7,7.3,12.6c0,1.9,3.4,6.6,3.7,1.3
					c0.3-5.3,5.1-13.2,6.3-16.7c1.3-3.5,9.8-2.8,9.8-2.8l-4.4-10.1c-1.9-4.4,1.2-3.5,4.4-3.5c3.2,0,10.7-0.3,20.2-3.7
					C-570.1,229.9-573.5,222.6-575.8,217.9z"/>
			</g>
		</g>
		<g>
			<g>
				<path class="st1" d="M-988.8,206.6c-16.7,1.2-30.4,11.1-40.9,27.3v-10.8h-2.8c-1.9,3.2-9.2,8.9-12.3,10.2l-31.6,13.6v3.4
					c7.8,3.4,10.1,19,10.1,19v120.3c0,19.3-7.1,26.3-7.1,26.3v4.2l53.3-25.2v-3.2c-10.1-4.4-9.7-17.5-9.7-17.5v-36.4
					c4.4,1.5,9,2.3,13.2,1.5c36-7.1,58.4-47.5,59.7-83.3C-956,234.9-962.5,204.7-988.8,206.6z M-998.9,283.5
					c0,15.3-6.6,31-21.6,34.9c-3,0.8-6.1,0.5-9.2,0v-56.1c3.6-10.1,8.3-19.1,17.6-19.3c6.9-0.1,13.2,6.3,13.2,16
					C-998.9,259-998.9,283.5-998.9,283.5z"/>
			</g>
		</g>
		<g>
			<g>
				<path class="st1" d="M-1076.2,329.3c0,0-25.3,32.5-45.9,32.5s-20.1-22.9-20.1-22.9l65.7-32c2.6-18.8-9.3-65.3-58.3-36
					c-48.9,29.8-46.9,80.4-46.9,80.4s1.1,44.8,32.7,44.8c31.7,0,67.1-34.5,67.1-34.5l8-30.9L-1076.2,329.3z M-1127.7,291.6
					c4.9-2.4,13.1-3.1,13.5,9.5l0,0l-28.2,13.9C-1141.7,306.3-1136,295.7-1127.7,291.6z"/>
			</g>
		</g>
		<g>
			<g>
				<path class="st1" d="M-1025.5,29.7l-72.1,33.1v2.8c10.8-1.2,12,15.5,12,15.5v121.1c0,24.6-8.9,31.6-8.9,31.6v4.3l70.2-33.1
					c41.4-19.5,75.6-62.2,75.6-114.6V72.6C-948.7,24.9-994.4,15.4-1025.5,29.7z M-993.1,108.2c-0.7,30.2-11.6,66.2-49.4,76v-114
					C-999.5,34.7-992.5,87.4-993.1,108.2z"/>
			</g>
		</g>
		<g>
			<g>
				<path class="st1" d="M-726,169.5c0,0-25.3,32.5-45.9,32.5s-20.1-22.9-20.1-22.9l65.7-32l0,0c2.6-18.8-9.3-65.5-58.3-36.1
					c-48.9,29.9-46.9,80.4-46.9,80.4s1,44.9,32.7,44.9c31.6,0,67-34.6,67-34.6l8-30.9L-726,169.5z M-777.5,131.8
					c4.9-2.5,13.1-3.2,13.4,9.5l-28.1,13.9C-791.5,146.5-785.7,135.7-777.5,131.8z"/>
			</g>
		</g>
		<g>
			<g>
				<path class="st1" d="M-901.3,337.6L-901.3,337.6L-901.3,337.6z"/>
			</g>
		</g>
		<g>
			<g>
				<path class="st1" d="M-870.2,152.4c-16.7,1.2-30.5,11.1-40.9,27.3V169h-2.8c-1.9,3.2-9.2,8.8-12.3,10.1l-31.5,13.5v3.4
					c7.8,3.4,10.1,19,10.1,19v120.3c0,19.3-7.2,26.3-7.2,26.3v4.2l53.4-25.2v-3.2c-10.2-4.5-9.7-17.6-9.7-17.6v-36.2
					c4.4,1.4,9,2.3,13.1,1.5c36-7.1,58.5-47.5,59.8-83.4C-837.3,180.8-843.9,150.5-870.2,152.4z M-880.2,229.4
					c0,15.3-6.7,31-21.7,35c-3,0.8-6.1,0.5-9.1-0.1v-56.1c3.5-10.1,8.3-19.2,17.6-19.3c6.9-0.1,13.2,6.3,13.2,16.1V229.4z"/>
			</g>
		</g>
		<g>
			<g>
				<path class="st1" d="M-646.9,156.5c-1.2-2-1.3-2.3-2.9-2.4c0.8-1.5,1-2.2,0.2-3.7c-1.4-2.7-3.4-2.3-5.2-1.4l-5.4,2.5l5.5,12.1
					l0,0l1.6-0.7l-2.4-5.2l4-1.8c2.5-1.2,2.8,1.4,3.7,2.7l0.9,1.4l1.9-0.9C-646.2,158.3-646.1,158-646.9,156.5z M-652.3,154.5
					l-3.8,1.8l-1.9-4.2l3.9-1.7c0.9-0.4,2.5-0.9,3.2,1.3C-650.3,153.3-651.2,154-652.3,154.5z"/>
			</g>
		</g>
	</g>
</g>
<g>
	<rect x="-4689.3" y="-203.5" class="st2" width="1000" height="1000"/>
	<g id="Coca_Cola">
		<path class="st1" d="M-3832.6,201.1c0.4-2.2,1.7-4.1,2.7-6c2.1-4.3,4.3-8.5,5.4-13.1c0.4-2,1.2-4.4-0.5-5.9
			c-2.1-1.8-4.3-0.3-6.2,0.8c-5.1,2.9-9.5,6.6-13.9,10.3c-13.4,11.3-25.3,24.2-36.3,37.9c-20.3,25.5-38.3,52.6-54.7,80.7
			c-3.3,5.6-6.6,11.2-9.5,17.7c2.5,0,3.9-1.4,5.3-2.5c7.9-6.1,15.6-12.4,22.9-19.1c11.9-10.8,23.3-22,34.3-33.7
			c8.3-8.7,16.2-17.7,23.6-27.3c3.5-4.5,6.2-5.4,12.6-4.3c-1.7,4-4.5,7.3-7.1,10.6c-15.2,18.7-31.4,36.5-48.8,53.1
			c-15.1,14.4-31.1,27.6-48.3,39.3c-3.2,2.1-5.4,4.6-7,8.3c-4.4,9.9-8.5,20-11.8,30.3c-1.2,3.7-2.1,7.4-2.8,11.2
			c-0.4,2.5-0.4,5,0.3,7.5c1.2,4.7,4.5,6.3,8.6,3.7c4.6-2.8,8.2-6.9,11.6-11c8.9-10.6,16.2-22.4,24-33.8
			c10.4-15.2,21.6-29.9,35-42.6c7-6.7,14.8-12.4,23.2-17.2c4.5-2.6,9.6-3.9,14.9-4c6.2-0.1,11.3,2.1,14.7,7.5
			c0.2,0.4,0.6,0.5,0.9,0.7c0.3-0.1,0.4-0.1,0.5-0.1c2.2-5.3,6.6-5.9,11.7-5.6c5.4,0.4,11,0,16.5,0.1c3.1,0.1,3.5,0.6,1.9,3.4
			l-20.9,35.3c-11.8,20-23.6,39.9-34.8,60.2c-1.1,1.9-2.7,4.1-0.7,6.1c2,2.1,4.2,0.4,6.1-0.7c5.1-3.1,9.5-7,13.6-11.5
			c7.6-8.4,14.5-17.3,21.1-26.4c2.1-2.9,6.5-4.3,9.8-3c1.1,0.4,1.3,1.2,0.9,2.1c-0.4,0.8-0.9,1.5-1.4,2.3
			c-9.5,14.4-20.2,27.9-32.1,40.4c-6.5,6.7-13.4,13.1-21.5,17.9c-4.4,2.6-8.9,4.6-14,5.5c-8.6,1.5-15.1-2.8-15.8-11.3
			c-0.2-2.5-0.5-4.9-0.8-7.5c-2.1,0-2.9,1.6-4.1,2.7c-6.2,5.5-12.8,10.5-20.4,14.3c-4,2-8.2,2.7-12.6,2c-6.9-1.2-11.7-6.4-12.7-13.6
			c-0.5-3.7-0.3-7.3-0.3-11.4c-2,0.7-2.8,2.1-3.9,3.3c-6.2,6.5-12.5,12.8-20.2,17.4c-3.5,2.1-7.2,3.6-11.1,4.4
			c-9.5,1.9-18.3-5.3-20-15.9c-1.1-7-0.1-13.6,1.5-20.3c2.2-9.5,5.6-18.8,8.7-28.1c0.4-1,0.7-2,1-2.9c1.1-3.6,0.9-3.7-2.9-3.2
			c-0.4,0.1-0.9,0.1-1.3,0.2c-10.3,0.7-8.4-0.1-13.6,8.2c-8.1,13-16.9,25.5-27.6,36.6c-8.2,8.6-17.3,15.8-27.7,21.4
			c-4.2,2.3-8.7,3.7-13.6,4.2c-9.7,1-16.9-4.1-19-13.6c-2-8.8-0.6-17.5,2-25.9c4.3-13.8,10.5-26.8,18.7-38.8
			c8.6-12.4,17.7-24.3,28.8-34.4c8.8-8.1,18.5-14.9,29.7-19.3c3.9-1.5,7.9-2.4,12.1-2.3c10.9,0.1,16.3,5.4,16.9,16.4
			c0.4,7.8-1,15.3-3.7,22.6c-1.6,4.3-3.4,8.6-5.4,12.7c-0.5,1-1.6,2.1-0.9,3.3c0.9,1.4,2.5,0.4,3.7,0.3c1.1,0,2.1-0.4,3-0.5
			c4.4-0.8,7.2-3.2,9.3-7.3c12.5-24.8,26.6-48.8,42.4-71.6c19.4-27.9,41.5-53.6,67.1-75.9c10.5-9.1,21.1-18.3,34.1-24.2
			c5.1-2.3,10.3-4,15.9-3.7c6.6,0.3,9.6,3.3,10,10c0.3,5-0.9,9.7-2.6,14.4c-0.9,2.3-2.1,4.6-3.1,6.9
			C-3823.3,200.3-3826.6,201.8-3832.6,201.1L-3832.6,201.1z M-3908.7,399.9c2.4-0.1,4.7-1.9,7-3.9c8.1-7.3,14.4-16.2,20.2-25.4
			c11.3-18,22.2-36.2,33.3-54.3c0.9-1.5,1.9-3,2.4-4.7c1.1-3.4-0.9-5.6-4.5-5.1c-3.1,0.4-6.1,1.6-8.5,3.7c-4.4,4-9.1,7.7-13.1,12
			c-6.8,7.5-13.4,15.2-19.1,23.5c-8.5,12.2-16.4,24.8-21.6,38.9c-1.1,2.9-2.1,6-2.2,9C-3915,397.7-3913,400-3908.7,399.9
			L-3908.7,399.9z M-4038.8,336.1c-2.2,2-3.7,4.6-5.3,7c-7.8,11.2-15,22.8-19.8,35.8c-1.3,3.5-2.2,7.1-2.5,10.8
			c-0.6,7.9,4.8,12,12.2,9.2c3.7-1.4,6.8-3.7,9.6-6.2c10.7-9.6,18.9-21.3,26.1-33.6c2.3-3.9,2.2-4-2.1-6.2c-6-3.1-11.3-7-15.2-12.7
			C-4036.6,338.8-4037.2,337.1-4038.8,336.1L-4038.8,336.1z M-4000,315.2v-1.8c-0.4-7.6-5-10.4-12.1-7.8c-4.3,1.6-7.8,4.2-10.8,7.6
			c-2.9,3.4-5.1,7.2-5.3,11.9c-0.7,11,7.2,17.1,14.9,20.4c2,0.8,3-0.3,3.8-1.9c2.4-4.5,4.9-9.2,6.4-14.2
			C-4001.7,324.8-3999.8,320.2-4000,315.2L-4000,315.2z M-4245.9,233.6c1.3-4,4.4-4.4,7.9-4.2c5.6,0.2,11.3,0.1,16.9,0.1
			c5.3,0,5.6,0.4,2.8,5.2c-6.2,10.3-12.4,20.6-18.6,30.9c-11.9,19.9-23.9,39.7-35.8,59.6c-0.8,1.4-1.6,2.9-1.8,4.5
			c-0.4,3.4,1.4,4.9,4.5,3.7c1.6-0.6,3.1-1.7,4.6-2.7c8.6-5.9,15.6-13.6,22.3-21.7c3.2-3.8,6.3-7.8,9.5-11.8c2.1-2.6,7.5-4,10.4-2.8
			c0.8,0.4,1.1,1.1,0.6,1.8c-0.6,1-1.3,2-2.1,2.9c-8.8,11.9-17.8,23.8-28.2,34.4c-9.3,9.5-18.9,19-31.2,24.8
			c-3.9,1.9-8,3.4-12.4,2.8c-6.3-0.9-10.6-5.6-11.1-12.5c-0.2-1.9,0-3.8,0-6.2c-2.1,0.7-2.9,2.2-4.1,3.3c-5.2,5-10.9,9.2-17.4,12.3
			c-4.4,2.1-8.9,3-13.8,2.9c-8.6-0.4-14-5.6-14.4-14.4c-0.3-4.6,0.4-9.2,1.2-13.7c0.3-1.2,1-2.5,0.3-4.2c-4.6,4.2-8.7,8.6-13.6,12.4
			c-7.2,5.7-14.5,11.3-23,15.2c-7.7,3.5-15.5,6-24.2,4.5c-10.5-1.8-19.5-10.3-20.7-22c-1-10.3,1.4-20.1,5.1-29.5
			c3.1-8.2,7-16,12.1-24.5c-4.5,1.1-8,1.9-11.6,2.7c-1.5,0.4-2.1,1.6-2.7,2.8c-9.1,16-20.4,30.2-33,43.5c-6.2,6.6-12.8,12.8-20.2,18
			c-5.3,3.7-10.8,6.8-17,8.5c-13.8,3.8-25.1-4.1-26.2-18.5c-0.6-8.5,0.7-16.7,3.3-24.6c5.9-17.7,15.3-33.3,26.9-47.9
			c8.2-10.3,17.3-19.6,27.7-27.6c7.8-6,16.2-11.1,25.7-14c4-1.2,8.1-2.1,12.3-1.4c9.5,1.2,15.3,7.6,15.9,17.3
			c0.5,9.9-2.3,19.1-6.2,28c-0.6,1.4-1.8,2.8-1.4,4.8c2.4,0.2,4.4-0.8,6.3-1.8c7.6-3.7,14.1-8.7,20.4-14.2
			c7.2-6.2,13.6-13.3,21-19.2c7.1-5.6,14.6-10.7,23.4-13.6c5.6-1.9,11.4-2,17.1-0.6c9.5,2.2,14.6,11.9,12.3,22.6
			c-1.8,8.2-5.8,15.2-11.5,21.3c-1.9,2-4,3.6-6.6,4.4c-6.9,2.1-12-2.5-10.5-9.5c1.9-8.8,7-14.6,16-16.6c2.2-0.5,4-0.9,3.9-3.7
			s-1.6-4.9-4.4-5.3c-2.5-0.4-5,0-7.4,1c-5.3,2.1-9.5,6-13.7,9.8c-19.2,17.7-32.5,39.1-42,63.3c-1.8,4.5-3,9-2.7,13.9
			c0.6,10.2,6.8,14.7,16.6,11.9c7.3-2.1,13.2-6.7,18.7-11.7c14.4-13.1,26.7-28.3,38.3-44c9.6-13,19.9-25.6,31.7-36.6
			c8.6-8,17.5-15.7,28.9-19.7c2.2-0.8,4.5-1.3,7-1.6c5.3-0.6,10,0.8,13.9,4.5C-4248.6,231.8-4247.9,233-4245.9,233.6L-4245.9,233.6z
			 M-4257.8,240.1c-1.6-0.1-3.4,0.6-5.2,1.4c-4.6,2.1-7.7,6-11.1,9.5c-15.9,17-29.2,35.9-40.7,56.1c-3.7,6.4-7,13.1-8.2,20.6
			c-0.8,5.4,2.2,7.9,7.3,6c4.3-1.6,7.7-4.5,10.6-7.8c7.1-8.2,13.4-17,19.3-26.1c11.1-17.4,21.7-35.1,31.8-53.1
			C-4251.3,242.5-4252.7,240.1-4257.8,240.1L-4257.8,240.1z M-4468.3,269.5c-0.3,0.1-0.6,0.2-0.7,0.4c-8.8,12.3-17.1,25-22.9,39
			c-2.1,5.2-3.8,10.6-3.7,16.4c0.2,6.3,4,9.3,10.3,7.9c4.7-1,8.4-3.7,11.9-6.8c10.4-9.5,18.5-20.9,25.9-32.6
			c0.9-1.3,1.8-2.8,2.6-4.2c1.5-2.8,1.4-3.1-1.3-4.2c-0.4-0.2-0.8-0.3-1.2-0.4c-7.8-3-14.5-7.3-19.3-14.4
			C-4467.2,270-4467.6,269.6-4468.3,269.5L-4468.3,269.5z M-4457.9,261.6c-0.1,2,0.5,3.9,1.7,5.7c3.7,5.7,9.5,8.4,15.9,9.6
			c2,0.4,3-0.6,3.8-2.3c4-7.8,6.7-16,7.2-24.6c0.4-7-2.8-11.3-9.4-10.5C-4447.9,240.7-4457.9,252.1-4457.9,261.6L-4457.9,261.6z"/>
		<path class="st1" d="M-4022,175.1c-3.1-2.1-6-1.5-8.7-1.2c-7,0.9-13,3.9-19.1,7.3c-15.3,8.5-28.8,19.4-41.5,31.4
			c-16.5,15.5-31.7,32.1-45,50.5c-14.6,20.1-27.7,41.1-37.5,64c-6.2,14.7-10.9,29.9-12.9,45.7c-1,7.9,0,15.8,4.6,22.6
			c5.2,7.8,14.2,11.3,23.4,9.5c5-1.1,9.6-3.1,13.9-5.8c11.8-7.5,21.6-17.2,30-28.3c7.8-10.3,14.4-21.4,18.9-33.7
			c2.1-6.1,3.7-12.2,4.1-18.6c0.1-0.9,0.1-1.8,0-2.7c-0.5-9.1-6.5-12.2-14.4-7.3c-5.9,3.7-10.2,9.1-13.9,14.8
			c-4.5,7-7.7,14.8-9.5,22.9c-0.5,2.2-1.5,3.6-3.7,4.6c-11.5,5.5-21.4,13.3-30.5,22.1c-0.4,0.4-0.9,0.8-1.3,1.2
			c-0.2,0.2-0.5,0.1-0.8,0.2c-1-0.6-0.6-1.6-0.5-2.4c2.2-15.6,6.6-30.5,15.1-44c8.6-13.6,19.8-24.4,34.3-31.6
			c6.5-3.2,13.3-5.3,20.7-3.5c5.7,1.4,9.7,4.9,11.9,10.4c2.4,6,2.1,12.2,1.6,18.5c-1,11.9-5.8,22.4-11.1,32.7
			c-5.4,10.6-11.9,20.6-19.4,29.8c-12.8,15.6-27.6,28.7-46,37.3c-10.4,4.9-21.6,6.8-33,4.1c-14.7-3.6-24-13.3-28.8-27.2
			c-5.5-15.9-4.7-32,0.4-47.7c6.9-21.1,16.7-40.9,27.8-60.2c8.6-14.7,18.1-28.6,28.9-41.7c17-20.8,36.2-39.3,58-55
			c14.1-10.1,28.8-18.9,44.8-25.6c10.3-4.3,21-6.5,32.1-6.4c6,0.1,11.5,1.8,16.1,5.4c2,1.5,3.5,1.6,5.6,0.8c9.8-3.8,20.1-5.6,30.5-6
			c14.9-0.5,28.9,3,41.9,10.1c14.4,7.8,28.7,15.7,43,23.5c0.5,0.3,1.1,0.5,1.5,0.9c2.4,1.6,2.4,1.9,0.4,4
			c-5.6,5.7-11.3,11.3-16.9,17.2c-1.9,2-3.5,1.8-5.4,0.5l-20.3-12c-8.9-5.3-17.8-10.8-26.7-16c-9.8-5.7-20.4-9.5-31.6-11.9
			c-3.7-0.8-7.4-0.9-11.1-0.1c-1.7,0.4-2.9,1.1-2.9,3.2c-0.4,18.2-6.8,34.6-15.5,50.1c-6.7,11.9-15.3,22.2-26.8,30
			c-5,3.3-10.3,5.9-16,7.5c-10,2.9-17.9-2.8-18.5-13.2c-0.4-6.5,1.2-12.7,3.6-18.6c6.7-16.6,17.8-30,30.6-42.3
			c7.1-6.8,14.9-12.8,23.2-18C-4024,176.5-4023.3,176-4022,175.1L-4022,175.1z M-4015.1,189.8c0.2-7,0-7.2-4.8-4.5
			c-9.1,5.1-17.1,11.7-24.5,19.1c-10.9,10.8-19.7,23-26.2,36.8c-1.6,3.5-2.9,7.1-3,11.1c-0.1,6.2,4.5,9.5,10.3,7.7
			c7-2.1,12.7-6.3,18-11.2c9.2-8.6,16-18.7,21.6-29.8C-4019,209.3-4015.8,199-4015.1,189.8L-4015.1,189.8z M-4247.4,432.1
			c-4.5-2.5-8.4-4.7-12.4-6.7c-17.4-8.4-35.6-13.3-55.1-12.3c-10.3,0.5-19.5,3.5-27.2,10.5c-1.2,1.1-2.2,2.3-3.3,3.6
			c-3.1,3.7-3.2,3.8-5.9-0.1c-4.5-6.6-10.4-11.7-17.5-15.6c-10.2-5.7-21.2-8.2-32.8-9.2c-21.5-1.8-42.4,1.9-63,6.9
			c-22.6,5.5-45.3,11.1-68.3,15.1c-10.7,1.9-21.5,3.2-32.4,1.4c-19.3-3.2-35.6-11.3-46.8-27.8c-4.9-7.1-7-15.3-8.4-23.7
			c-3.3-19.2-0.7-37.9,5.2-56.2c7.2-22.6,18.5-43,32.3-62.2c12.3-17.3,26.6-32.8,42.1-47.1c18.9-17.4,39.8-32.1,63.9-41.5
			c9.9-3.8,20.1-6.3,30.9-6.3c16,0.1,25.1,10.1,22.9,25.7c-1.3,9.3-5.3,17.6-12.1,24.3c-2.5,2.4-5.3,4.2-8.9,4.8
			c-4.6,0.8-8.6-1.9-9.5-6.5c-1.5-7.2,2.3-15.5,9-19.3c2.8-1.5,5.6-2.8,8.7-3.1c2.1-0.3,2.9-1.6,3.1-3.7c0.4-5.2-2.4-8.6-7.7-8.9
			c-3.7-0.3-7.4,0.4-11,1.6c-13.6,4.5-25.4,12.2-36.2,21.5c-24.7,21.3-45.3,46.3-63.2,73.4c-11.9,17.9-21,37.3-26.7,58
			c-3.6,13-6.2,26.3-5.3,40c0.8,11.4,4.8,21.3,13.5,29.2c4.9,4.4,10.6,7.1,16.8,8.9c5.5,1.6,11.2,2.7,17.1,2.9
			c18.5,1,36.7-1.8,54.7-6c23.5-5.5,46.8-11.1,70.3-16.6c17.1-4.1,34.4-7,52-6.6c30.1,0.6,58,8.6,83.1,25.6c8.9,6,16.9,13,24.5,20.6
			C-4249.6,428-4248.2,429.3-4247.4,432.1z M-3756.7,163.5c0.4,1.5-0.3,2.3-0.8,3.2c-13.1,21.7-30.4,39.1-52.7,51.3
			c-14.4,7.9-29.7,13.5-46.3,15c-6.9,0.6-13.6,0.3-20.4-1.2c-3.4-0.7-3.7-1.3-1.6-3.9c5.2-6.5,10.6-12.8,16.3-18.9
			c1.4-1.5,3.1-1.4,4.9-1.4c6.5,0,13,0.3,19.6-0.6c15-2.1,28.6-7.6,41.8-14.6c13.6-7.3,25.6-16.7,36.8-27.2c0.4-0.4,0.9-0.8,1.3-1.2
			C-3757.5,163.6-3757.3,163.6-3756.7,163.5L-3756.7,163.5z M-4183.1,229.4c3.4,0,6.9-0.1,10.3,0c2.2,0.1,2.7,0.8,1.4,2.8
			c-3.9,6.5-7.9,12.8-11.9,19.3c-1,1.6-2.2,2.2-4,2.1c-6.7,0-13.4,0.1-20.1-0.1c-3,0-3.5-0.8-1.9-3.5c3.7-6.2,7.6-12.4,11.4-18.6
			c1-1.6,2.2-2.2,4.1-2.1C-4190.3,229.4-4186.7,229.4-4183.1,229.4L-4183.1,229.4z"/>
	</g>
</g>
<g>
	<rect x="-3081.4" y="-203.5" class="st3" width="1000" height="1000"/>
	<g>
		<path id="Sprite" class="st1" d="M-2851.7,362.3l-19.5,47.3c0,0,30.8,8.3,58.8,3.9s69.6-37.2,73.2-70
			c3.6-32.8-16.5-50.7-26.6-63.1c-10.1-12.4-8.5-23.4,4.4-30.3c12.9-6.9,33.3-5.7,46.1,17l14.9-37.2c0,0-38.8-18.1-79.9,1.6
			c-41.1,19.7-41.1,58.3-33.5,73.7c7.6,15.4,29.8,21.1,30.5,39.5s-11.5,33.1-32.8,32.8S-2840.9,373.8-2851.7,362.3L-2851.7,362.3z
			 M-2726.2,427.9c0,0,11.5-28.2,23.4-61.1c25.5-69.7,31-74.9,40.1-75.2c9.1-0.3,7.6,9.3,7.2,18.3c-1.2,29.3-41.2,72-48.4,77.7
			c-8,5.4-5.5,5.3-3.5,5c65.9-9.9,84.7-64.5,86.3-74.2c6.7-43.6-18.4-46.1-31.5-45.5c-13.1,0.7-53.9,6-53.9,6l-59.5,154.5
			L-2726.2,427.9z M-2599.2,376.8c0,0,26.4-67.3,28.5-73c14-21.8,35.4-16.5,35.4-16.5l13.8-35.1c0,0-6.7-1.4-20.9,2.8
			c-14.2,4.1-27.5,22-27.5,22l5.5-17.2l-28.2,3l-46.6,118.9L-2599.2,376.8z M-2511.7,251.4l-46.4,119.1l40.9-4.4l46.4-119.6
			L-2511.7,251.4z M-2437.8,222.3l-7.6,21.6l-17.2,0.9l-10.6,28.7l17-1.1l-36,90l39.9-5.1l35.6-91.4l19.3-2.5l10.3-27.8l-19.3,2.1
			l14-35.1L-2437.8,222.3z M-2318.4,303.1c-1.7,2.4-25.3,28.7-43.6,23.4c-18.4-5.3-11.5-25.7-5.5-37.9c6-12.2,23.2-46.6,34.7-44.3
			c4.8,2.1,5.3,10.1-12.6,33.5c-3.4,5.1-7.6,9.4-20.7,17.7c-1.4,2.8-1.1,6,25.5-3.2c26.6-9.2,37.4-28.9,38.1-44.3
			s-20.7-20.4-34-17.4s-51.4,13.3-73.9,66.1c-4.6,9.4-14,50,26.2,53.7c14,1.1,46.4-6.4,69.3-42
			C-2314.1,305.9-2316.6,300.6-2318.4,303.1L-2318.4,303.1z M-2459.3,198.4c-6.7-6.7-20.9-3.4-31.6,7.4
			c-10.8,10.8-14.1,24.9-7.4,31.6c6.7,6.7,20.9,3.4,31.6-7.4C-2455.9,219.2-2452.6,205.1-2459.3,198.4z M-2253.9,457.8
			c-355.4-191.5-564.7,139.3-564.7,139.3c-41.3-225-173.6-193.3-173.6-193.3c219-75.3,135.7-303.5,135.7-303.5
			c282.4,252.1,539-79.9,539-79.9s-42.5,134.5,8.3,159.8s133.1-4.1,133.1-4.1C-2366.2,298-2253.9,457.8-2253.9,457.8z
			 M-2235.6,207.4c0,0-147.8,29.8-114.3-119.8c0,0-210.9,246.4-482.1,44.5c0,0,60.1,190.4-138.2,265.8c0,0,138.1-5.9,164.9,132.2
			c0,0,209.3-244.3,531.1-97.3C-2274.1,432.8-2352.2,307.5-2235.6,207.4L-2235.6,207.4z M-2325.7,358.1c0-5.2-4.2-9.4-9.4-9.4
			s-9.4,4.2-9.4,9.4c0,5.2,4.2,9.4,9.4,9.4C-2329.9,367.5-2325.7,363.3-2325.7,358.1z M-2327.1,358.1c0,4.5-3.6,8.1-8.1,8.1
			s-8.1-3.6-8.1-8.1s3.6-8.1,8.1-8.1S-2327.1,353.7-2327.1,358.1z M-2329.8,355.4c-0.4,2.2-1.9,2.9-3.4,3l1.9,5h-2.9l-0.3-0.7
			l-1.4-4.2h-1.2l-1,4.9h-2.4l1-5l1.4-6.6h4.3C-2330.8,351.9-2329.2,352.7-2329.8,355.4L-2329.8,355.4z M-2334.4,353.9h-1.7
			l-0.6,2.9h2.2c1.2,0,1.9-0.3,2.2-1.6C-2332.2,354-2333.4,353.9-2334.4,353.9z"/>
	</g>
</g>
<g>
	<rect x="-1467.4" y="1166.3" class="st4" width="1000" height="1000"/>
	<g id="XMLID_1_">
		<g>
			<path class="st1" d="M-515.6,1622.6c8.2,0.1,15,6.9,14.9,14.9c-0.1,8.1-6.8,14.6-15.2,14.5c-8.5,0-14.8-6.3-14.8-14.8
				C-530.6,1629-523.9,1622.6-515.6,1622.6z M-502.2,1637.6c0.1-7.4-5.8-13.5-13.2-13.6c-7.7-0.1-13.8,5.7-13.9,13.2
				c-0.1,7.4,6.1,13.7,13.6,13.7C-508.4,1650.9-502.2,1644.8-502.2,1637.6z"/>
			<path class="st1" d="M-507.4,1644c-0.2,0.3-0.4,0.6-0.6,0.9c-1-0.5-2.2-0.8-3-1.5c-1.3-1-2.2-2.5-3.5-3.5
				c-0.9-0.7-2.2-1.1-3.2-0.9c-0.6,0.1-0.9,1.7-1.2,2.6c-0.2,0.6,0,1.3-0.2,2c-0.1,0.4-0.7,1-1,1c-0.4,0-1-0.6-1-1
				c-0.1-4.3-0.1-8.6,0-12.9c0-0.4,0.4-0.8,0.7-1c1.6-1.1,9.2,0.1,10.4,1.6c2.3,3.2-0.2,5-2.6,7.1
				C-510.8,1640.4-509.1,1642.2-507.4,1644z M-512,1633.9c0.1-2.8-2.1-2.9-4.1-3.1c-2.1-0.2-3,0.8-3.5,3.7c1,0.8,2,2.2,3.1,2.4
				C-514.4,1637.2-512.1,1636.7-512,1633.9z"/>
			<path class="st1" d="M-548.6,1674.9c7.9-8.1,16.1-15.4,29.3-14.4c-2.3,6.4-4.5,12.4-6.9,18.8c-4.8-2.1-9.3-2.9-14-0.6
				c-1.4,0.7-2.7,1.4-3.9,2.3L-548.6,1674.9z"/>
			<path class="st1" d="M-548.6,1674.9l4.5,6c-3.7,2.5-6.8,5.8-8.7,9.8c-3.9,8.1-7.3,16.5-10.5,24.9c-3.7,9.9-6.7,20-10.1,30
				c-0.2,0.7-0.5,1.4-0.8,2.1c-5.8,0-11.4,0-17.3,0c0.4-1,0.9-2.3,1.5-3.6c10.6-25.7,19.8-52,27.7-78.6c0.9-3.1,2-4.5,5.4-3.5
				c1.9,0.6,4.2,0.3,6.2,0.2c2.1-0.1,4.1-0.6,6.8-1c-1.9,4.7-3.7,8.9-5.4,13.2C-549,1674.5-548.8,1674.7-548.6,1674.9z"/>
			<path class="st1" d="M-604.7,1661.1c14.6,3.4,19.3,15.3,17.9,27.1c-0.6,5-2.4,9.8-3.6,14.7c-0.6,2.3-1.7,2.9-4.2,2.9
				c-18-0.3-36.1-0.3-54.1-0.3c-1.2,0-3.2,1.2-3.4,2c-0.8,5.3-2,10.7-1.5,16c1.1,10.3,7.9,15.7,18.8,16c9.2,0.3,17.5-2.5,25.3-7.3
				c1.7-1.1,3.7-1.6,6.3-2.6c-1.9,7.7-4.8,12.8-12.1,14.9c-9.9,2.9-19.8,4.7-30.2,3.4c-18.5-2.4-26.1-15.9-25.2-31.3
				c1-16.6,7-31.3,19.5-42.7C-637.8,1661.9-622.4,1656.9-604.7,1661.1z M-602.2,1685.9c1.8-11.2-5.6-19.1-16.1-17.9
				c-12.9,1.4-26.5,13.8-29.3,27.1c1.1,0.1,1.9,0.3,2.8,0.3c10.4,0.2,20.9,0.7,31.3,0.5C-602.5,1695.7-603.8,1696.2-602.2,1685.9z"
				/>
			<path class="st1" d="M-674.4,1661.4c1,0.4,1.9,0.9,2.9,1.4c-2.3,4.7-4.4,9.2-6.7,13.5c-0.4,0.8-1.9,1.3-2.9,1.3
				c-0.6,0-1.7-1-1.9-1.7c-2.5-6.9-8.2-10-15.4-7.9c-6.5,2-11.1,6.2-13,12.9c-1.3,4.7-0.3,8.2,3.6,11.1c1.9,1.4,4.1,2.5,6.2,3.7
				c2.7,1.5,5.5,2.7,8.2,4.3c6.6,4,9.4,10.5,7.5,18.1c-3.9,15.9-14.9,24.7-30,28.7c-9.8,2.6-19.6,2.4-29-2.2c-1-0.5-2-1.2-3.2-1.9
				c2.7-4.5,5.1-8.6,7.7-12.6c1.3-2,3.9-1.9,4.6,0.3c2.3,7.1,8,8.7,14.3,8.9c9.5,0.2,17.7-6.5,20-15.7c0.9-3.9-0.1-7-3.3-9.3
				c-1.5-1.1-3.1-2.1-4.8-2.9c-2.2-1.2-4.5-2.2-6.8-3.4c-8.9-4.7-12.3-12.3-9.9-22.1c3.6-14.9,16.4-25.7,31.7-27.2
				C-687.7,1658.1-680.9,1658.6-674.4,1661.4z"/>
			<path class="st1" d="M-724.6,1634c0.1,5.9-5.4,11.3-11.4,11.3c-5.3,0-8.9-3.6-8.9-8.9c0-5.9,5.1-11.1,11-11.2
				C-728.7,1625.2-724.7,1629-724.6,1634z"/>
			<path class="st1" d="M-735.2,1661.6c-0.4,1-0.7,2.1-1.2,3.1c-10.7,26.4-20.7,53-28.7,80.3c-0.4,1.5-0.8,2.8-2.9,2.7
				c-5.4-0.2-10.9-0.1-16.4-0.1c0.2-0.5,0.4-1.2,0.6-1.9c11.3-26.6,21.3-53.7,29.5-81.4c0.5-1.7,1-2.9,3.2-2.8
				C-745.9,1661.7-740.8,1661.6-735.2,1661.6z"/>
			<path class="st1" d="M-795.4,1662.5c6.4,0,12,0,18.1,0c-0.9,3.1-1.6,6-2.7,8.8c-0.2,0.6-1.8,1.1-2.7,1c-4.3-0.1-8.6-0.3-12.9-0.6
				c-2.1-0.2-3.4,0.4-4.2,2.7c-5.2,15.3-10.5,30.5-15.7,45.9c-0.6,1.8-1.1,3.8-1.5,5.7c-1.9,9.6,3.7,15,13.3,12.3
				c3.2-0.9,6.2-2.5,9.4-3.7c-0.6,8-1.8,10-9.3,11.7c-5.1,1.1-10.7,1.8-15.9,1.3c-11.4-1.2-16.9-9.2-13.8-20.3
				c2.9-10.5,6.9-20.6,10.5-30.9c2.4-6.9,4.8-13.7,7.2-20.6c0.4-1.1,0.6-2.2,1.1-3.9c-2.3,0-4.1-0.1-6,0c-1.7,0.1-3.4,0.2-5.3,0.4
				c0.9-3.2,1.7-6.1,2.7-9c0.2-0.5,1.1-1,1.7-1.1c0.9-0.2,1.8-0.1,2.6,0c7.1,0.6,7.9,0.7,9.1-6.3c1.6-9.2,6.5-13.9,15.3-15.6
				c2.7-0.5,5.2-1.7,8.4-2.8C-789.2,1646.1-792.2,1654.1-795.4,1662.5z"/>
			<path class="st1" d="M-858,1660.7c13.9,3.4,19,15,17.6,26.7c-0.6,5.1-2.4,10-3.6,15c-0.6,2.3-1.8,3.1-4.2,3
				c-12.9-0.5-25.7-0.8-38.6-1.1c-5.3-0.1-10.6,0.1-15.8,0.5c-1.1,0.1-2.9,1.2-3,2.1c-0.7,5.3-2,10.7-1.5,15.9
				c1,10.1,7.9,15.5,18.1,16c9.7,0.4,18.4-2.4,26.5-7.5c1.5-1,3.4-1.5,5.1-2.1c0.2,0.4,0.4,0.7,0.6,1.1c-1.3,2.9-2.4,5.9-3.8,8.7
				c-0.4,0.9-1.4,1.7-2.3,2.2c-12.5,6.1-25.7,8.3-39.4,5.4c-13.4-2.8-21.4-12-21.9-26c-0.9-26.1,15-52.7,42.3-60
				C-873.9,1658.6-865.9,1658.7-858,1660.7z M-857.5,1692.8c0.8-4.2,2-8.4,1.7-12.6c-0.6-8.8-7.3-13.7-16-12.7
				c-13.2,1.5-25.7,12.8-29.4,26.6c0.4,0.2,0.6,0.4,0.7,0.4c13.5,0.1,27,0.3,40.5,0.3C-859.1,1694.9-857.6,1693.7-857.5,1692.8z"/>
			<path class="st1" d="M-908.2,1614.3c1.2,0,2.3-0.2,4.1-0.4c-3.8,10.1-7.5,19.5-10.9,29c-11.8,33.5-23.5,67.2-35.2,100.8
				c-0.9,2.4-1.8,3.5-4.5,3.5c-4.8-0.1-9.6,0.5-14.6,0.8c0.4-1.1,0.7-2.1,1.1-3.1c16.8-41.8,32-84.2,44.8-127.4
				c0.8-2.6,1.7-3.6,4.8-3.1C-915.3,1615-911.7,1614.4-908.2,1614.3z"/>
			<path class="st1" d="M-984.5,1660.2c11.1,2.9,18.3,11.5,18.2,23c-0.2,26-11.3,46.2-33.7,59.6c-9.7,5.8-20.4,7.1-31.5,4.4
				c-7.3-1.7-9.4-3.4-15.1-11.9c-6.4,19.3-12.7,38-18.9,56.6c-5.4,0-10.6,0-16.1,0c0.2-0.6,0.4-1.6,0.7-2.6
				c14.3-41.8,28.7-83.5,43-125.3c0.9-2.8,2-3.6,5-3.2c4.2,0.5,8.4,0.1,12.9,0.1c-0.9,2.6-2,5.4-3,8.3c0.2,0.2,0.4,0.4,0.6,0.6
				c1-0.7,2-1.4,3-2.1C-1008.8,1660.3-997.4,1656.9-984.5,1660.2z M-983.3,1688.2c1.3-11.4-6.5-18.8-18-18.4
				c-7.1,0.2-13,3.3-17.9,8.1c-12.4,12.1-18.1,27.4-20.4,41.4c-0.2,13,4.6,18.7,14.8,19.8c6.7,0.7,12.8-1.4,18.1-5.6
				C-992.2,1721.9-985.3,1706.1-983.3,1688.2z"/>
			<path class="st1" d="M-1083.2,1660.1c11.9,2.9,19.4,11.5,19,23.7c-0.8,26.8-12.4,47.5-36.4,60.3c-8.6,4.6-18.1,5.4-27.6,3.5
				c-7-1.4-12.8-4.6-16-12.5c-0.8,2-1.3,3.2-1.7,4.4c-5.6,16.5-11.2,33.1-16.6,49.7c-0.8,2.4-1.7,3.1-4.4,2.7
				c-4.1-0.6-8.3-0.1-12.5-0.1c14.9-43.4,30-87.2,45.1-130.9c5.3,0,10.6,0,16.3,0c-0.9,2.6-1.9,5.5-2.9,8.4c0.2,0.2,0.3,0.3,0.5,0.5
				c0.8-0.6,1.6-1.2,2.4-1.7C-1107.5,1660.6-1096.1,1656.9-1083.2,1660.1z M-1081.4,1690.8c0.1-16-8.7-23.2-21.4-20.6
				c-7.2,1.5-13,5.3-17.7,10.8c-9.7,11.4-15.2,24.9-17.3,39.6c-1.3,8.9,4,16.6,11.8,18c7.1,1.3,13.8,0.1,19.8-4.2
				C-1090.4,1723-1084,1706.3-1081.4,1690.8z"/>
			<path class="st1" d="M-1123.3,1546.4c2.5,0,4.5,2.1,4.5,4.7s-2.1,4.6-4.6,4.6c-2.6,0-4.5-2-4.5-4.7
				C-1127.8,1548.4-1125.9,1546.4-1123.3,1546.4z"/>
			<path class="st1" d="M-1126.8,1566c0.6-3.7,2.5-4.1,6-3.2c-1.9,7.4-3.6,14.6-5.6,21.8c-0.2,0.6-1.4,1.4-2.1,1.4
				c-14,0.1-27.9,0.1-41.9,0c-0.7,0-2-0.8-2.1-1.4c-1.9-7.2-3.7-14.4-5.6-22c1.9,0,3.4,0,4.9,0c0.6,1.8,1,3.7,1.9,5.5
				c3.2,6.6,10.8,7.5,15.3,1.7c1.7-2.1,3.1-4.8,3.5-7.3c0.6-3.7,2.4-3.9,4.8-3.2c1.3,3.3,2.3,6.4,3.9,9.3c2,3.6,5.3,5.7,9.6,4.9
				C-1130.2,1572.8-1127.5,1569.9-1126.8,1566z"/>
			<path class="st1" d="M-1127.7,1597.1c0.1,2.5-0.1,4-3.4,4c-5.5-0.1-11-0.1-16.5-0.1v-8.1c5.5,0,11,0,16.5-0.1
				C-1127.2,1592.7-1127.8,1594.9-1127.7,1597.1z"/>
			<path class="st1" d="M-1140.8,1612c-1,2.9-1.8,5.1-2.6,7.3c-14,41.4-28,82.9-42.1,124.3c-0.3,1-1.3,2.4-2,2.5
				c-6.1,0.5-12.2,0.7-18.4,0.9c0.2-0.6,0.4-1.5,0.8-2.3c5-12.1,9.9-24.2,15-36.3c1.2-2.7,0.7-4.2-1.9-5.4
				c-10.7-5.1-21.4-10.2-32-15.4c-3.4-1.6-5.9-0.8-8.9,1.6c-25.8,20.7-53,39.4-82.6,54.2c-17.2,8.6-35.3,15.4-54.4,18.5
				c-14,2.3-28,2.8-41.9-1c-20.7-5.6-27.7-21.7-17.7-40.8c5.2-10,13-17.7,21.9-24.4c17-12.9,36.6-19.9,57.2-24.3
				c22.4-4.8,45.1-5.4,67.9-4.2c16.4,0.9,32.5,3.2,48.6,6.6c1.5,0.3,3.5-0.2,4.7-1.1c25.7-19.5,51.4-38.9,77-58.6
				C-1148.8,1611.5-1145.2,1612.2-1140.8,1612z M-1167.2,1640.5c-0.3-0.2-0.7-0.4-1-0.6c-16.5,12.7-32.9,25.3-49.3,37.9
				c11,5.5,21.4,10.8,32.4,16.3C-1179.2,1676.4-1173.2,1658.5-1167.2,1640.5z M-1242.1,1684c0-0.4,0-0.8,0-1.2
				c-1.5-0.4-3-0.9-4.6-1.1c-11-1.4-22-3.1-33-4c-24.5-2-49-1-73,4.7c-16.1,3.8-31.4,9.3-44.1,20.5c-7.2,6.3-12.9,13.6-15.5,22.9
				c-2.7,9.7,0.9,17.4,10,21.7c9,4.2,18.5,4.6,28.1,3.7c16-1.5,31.2-6.4,45.8-12.8c22.5-9.7,42.8-23.4,62.9-37.2
				C-1257.5,1695.6-1249.9,1689.7-1242.1,1684z"/>
			<path class="st1" d="M-1149.1,1540.6c3,0.2,5.4,3.1,5.2,6.2c-0.2,3.1-3,5.6-6,5.4c-3.2-0.3-5.4-3.2-5.1-6.5
				C-1154.6,1542.6-1152,1540.4-1149.1,1540.6z"/>
			<path class="st1" d="M-1147.6,1592.9v8.1c-6.8,0-13.6,0-20.4,0c-1,0-2-0.1-3.2-0.2c0-2.8,0-5.1,0-7.8c1.1-0.1,2-0.2,3-0.2
				C-1161.4,1592.8-1154.5,1592.9-1147.6,1592.9z"/>
			<path class="st1" d="M-1175.9,1546.4c2.6,0,4.5,2,4.5,4.7s-1.9,4.6-4.5,4.6c-2.5,0-4.6-2.1-4.6-4.6
				C-1180.5,1548.5-1178.5,1546.4-1175.9,1546.4z"/>
		</g>
	</g>
</g>
<circle class="st2" cx="977.6" cy="-444.4" r="66.3"/>
<circle class="st0" cx="1231" cy="-451.9" r="66.3"/>
<circle class="st3" cx="787.3" cy="-444.4" r="66.3"/>
<ellipse transform="matrix(0.7071 -0.7071 0.7071 0.7071 432.9948 653.958)" class="st5" cx="1005.9" cy="-195.7" rx="66.3" ry="66.3"/>
<circle class="st4" cx="809.6" cy="-203.4" r="66.3"/>
<g>
	<rect x="-4689.3" y="1166.3" class="st5" width="1000" height="1000"/>
	<g>
		<path class="st1" d="M-4564.9,1445.9c4.2-0.5,8.4-1,12.5-1.4c18.5-2,37-4,55.5-5.9c13.2-1.4,26.5-2.6,39.7-3.9
			c15.7-1.6,31.4-3.3,47.1-5c5.8-0.7,5.9-0.9,7.6,4.7c2.9,9.3,5.9,18.5,8.7,27.8c0.7,2.4,1.7,3.3,4.3,3c20.9-2.2,41.8-4.1,62.7-6.3
			c3.2-0.3,5.5,0,6.1,3.6c0.1,0.7,0.5,1.4,0.7,2.1c2.6,7,2.6,7.1,10,6.2c24.6-2.9,49.2-5.9,73.8-8.8c14.4-1.7,28.8-3.4,43.2-4.7
			c3.9-0.4,4.1-2.6,4.2-5.4c0.4-10.7,0.8-21.4,1.1-32.1c0.3-8.4,0.3-8.4,8.7-9.1c15.7-1.3,31.5-2.6,47.2-4c10.7-0.9,21.3-1.9,32-2.8
			c0.6-0.1,1.3,0,2.2,0c0.3,2.6,0.7,5.1,0.9,7.7c0.2,2.3,0.9,3.4,3.6,3.1c12-1.3,24.1-2.5,36.2-3.7c18.2-1.8,36.4-3.7,54.6-5.6
			c16-1.7,32.1-3.4,48.1-5.1c4.6-0.5,9.2-0.9,14.2-1.4c1,7.1,2,14.2,3,21.4c2.1,15.1,4.2,30.2,6.2,45.3c0.4,3.2,1.6,4.3,4.9,3.9
			c11-1.3,21.9-2.4,32.9-3.5c4.2-0.4,8.4-0.9,12.6-1.1c0.9,0,2.4,0.9,2.7,1.7c11.7,29.7,23.2,59.4,34.8,89.1
			c9.5,24.4,19.1,48.7,28.6,73.1c0.1,0.3,0.2,0.6,0.4,1c-8.5,6.3-17,12.7-25.5,19c-26,19.4-52.1,38.8-78.1,58.1
			c-26.5,19.7-53,39.4-79.4,59.1c-23.1,17.2-46.1,34.5-69.2,51.7c-20.2,15.1-40.5,30-60.7,45.1c-22.3,16.6-44.6,33.3-66.9,49.9
			c-8.9,6.7-17.9,13.2-26.8,20c-1.6,1.2-2.7,1.2-4.2,0.1c-29.7-21.7-59.4-43.5-89.1-65.1c-24.9-18.2-49.9-36.3-74.8-54.4
			c-25.6-18.7-51.2-37.4-76.8-56.1c-22.1-16.1-44.3-32.2-66.3-48.5c-1.2-0.9-2.2-2.7-2.4-4.1c-3.1-25.9-6.1-51.8-9.1-77.7
			c-2.7-23-5.4-46-8.2-68.9c-2.2-18.1-4.6-36.3-6.7-54.4c-2.1-17.9-4.1-35.9-6.2-53.8C-4564.3,1448.5-4564.6,1447.4-4564.9,1445.9z
			 M-4203.1,1574.5c3-1.4,4.7-0.6,6.5,1.6c18.2,23.5,36.6,47,54.8,70.5c1.5,2,3.1,2.6,5.5,2.3c16.1-2,32.2-3.9,48.4-5.7
			c2.2-0.2,2.8-1,2.5-3.1c-1.3-11.1-2.6-22.1-3.9-33.2c-1.9-16-3.8-32-5.7-48c-2.6-22.2-5.2-44.5-7.8-66.7
			c-2.6-22.5-5.4-44.9-7.9-67.4c-0.3-3-1.3-3.5-4.1-3.2c-17,2.1-34,4.1-50.9,6c-2.4,0.3-3.3,0.9-3,3.6c1.8,14.1,3.3,28.1,5,42.2
			c2.2,18.9,4.5,37.8,6.6,56.7c0.1,1-0.4,2.9-0.8,2.9c-1.5,0.2-3.1,0-4.5-0.4c-0.8-0.3-1.4-1.3-2.1-2
			c-15.9-16.8-31.9-33.7-47.7-50.5c-1.6-1.7-3.2-2.5-5.7-2c-3.2,0.6-6.4,0.8-9.7,1.2c-13.8,1.6-27.5,3.3-41.3,4.8
			c-2.9,0.3-3.8,1.4-3.4,4.3c1,7.2,1.7,14.4,2.6,21.6c2.4,20,4.8,40,7.2,59.9c1.9,16,3.7,32,5.6,48c2.1,17.8,4.3,35.7,6.3,53.5
			c0.6,5.1,0.5,5.2,5.6,4.6c16.7-1.9,33.3-4,50-5.9c2.6-0.3,3.3-1.2,2.9-3.7c-0.9-6.3-1.6-12.7-2.4-19c-2.1-17.9-4.2-35.9-6.3-53.8
			C-4201.6,1587.2-4202.4,1580.8-4203.1,1574.5z M-4418.1,1447c-4.7,0.6-9.1,1.1-13.5,1.6c-18.4,2.1-36.8,4.2-55.1,6.4
			c-17.9,2.1-35.9,4.3-53.8,6.4c-4.6,0.5-4.6,0.5-4.1,4.7c2,17,4,33.9,6,50.9c4.2,35.2,8.5,70.5,12.7,105.7
			c2.5,20.9,4.9,41.9,7.3,62.9c0.3,2.7,1.2,3.4,3.9,3c7.4-1,14.8-1.8,22.2-2.7c9.5-1.1,18.9-2.3,28.4-3.3c3-0.3,3.7-1.6,3.2-4.4
			c-0.7-4.2-1-8.4-1.5-12.6c-2.9-24.2-5.7-48.4-8.6-72.5c-0.3-2.2,0.2-3.1,2.5-3.4c15.8-1.7,31.6-3.6,47.4-5.4c4.4-0.5,4.5-0.5,4-5
			c-1.4-12.1-3-24.3-4.3-36.4c-0.3-3-1.3-3.6-4-3.2c-13.4,1.7-26.8,3.3-40.3,4.9c-3.5,0.4-7,0.7-10.9,1c-1.3-10.6-2.4-20.8-3.7-31
			c-0.4-2.8,0.7-3.6,3.2-3.8c6.9-0.7,13.8-1.5,20.6-2.3c13.7-1.6,27.3-3.3,41-4.7c3.4-0.4,4.2-1.6,3.8-4.9
			c-1.6-11.7-2.8-23.4-4.2-35.1C-4416.8,1458.3-4417.4,1452.9-4418.1,1447z M-4032.1,1653.6c1.1-0.1,1.7-0.1,2.4-0.2
			c17.9-2.1,35.9-4.3,53.8-6.4c4.5-0.5,4.4-0.6,3.9-5.2c-2.2-18.2-4.4-36.5-6.6-54.8c-2.4-20-4.7-40-7-60c-1.8-15.7-3.7-31.4-5.6-47
			c-0.3-2.2,0.4-3.1,2.7-3.3c12.6-1.4,25.1-3,37.7-4.3c2.7-0.3,3.5-1.1,3.1-3.8c-2-16-3.8-32-5.6-48c-0.2-2-1.1-2.6-3.2-2.3
			c-19.7,2.1-39.4,4.2-59.1,6.2c-24.5,2.5-49.1,5-73.7,7.4c-2.6,0.3-3.4,1-3.1,3.8c2,15.6,3.8,31.1,5.6,46.7c0.5,4.6,0.5,4.6,5.2,4
			c8-0.9,15.9-1.8,23.8-2.9c2.7-0.4,3.3,0.4,3.5,2.9c1.5,13.7,3.1,27.3,4.7,40.9c2.9,24.4,5.9,48.7,8.8,73.1c2,16.8,4,33.5,5.8,50.3
			C-4034.6,1653-4034,1654.2-4032.1,1653.6z M-4268.8,1661.1c-0.4-1.5-0.6-2.6-1-3.5c-16.5-47.3-32.9-94.6-49.4-141.9
			c-4.2-12.2-8.5-24.3-12.6-36.5c-0.8-2.3-1.6-3.2-4.3-2.9c-14.7,1.9-29.4,3.7-44.2,5.2c-8.5,0.9-6.6,0.1-8,7.9
			c-5.7,30.6-11.2,61.3-16.8,91.9c-6.1,33.5-12.4,67-18.6,100.4c-0.8,4.2-1.4,8.4-2.2,12.8c1,0.1,1.7,0.3,2.3,0.2
			c14.9-1.7,29.9-3.5,44.8-5.2c2-0.2,2.6-1.1,2.9-3.1c2.2-16.5,4.6-33,6.8-49.5c0.3-2.1,1-2.8,3.2-3c8-0.8,15.9-1.9,23.9-2.8
			c4.7-0.6,9.4-1,14.2-1.6c3.5,11.4,6.9,22.6,10.2,33.8c0.7,2.5,1.7,3.5,4.5,3.2c11.7-1.5,23.4-2.8,35.1-4.1
			C-4275,1662.1-4272,1661.6-4268.8,1661.1z M-3913.6,1595.9c7.8-0.9,15.6-1.7,23.3-2.7c2.4-0.3,3.2,0.5,3.9,2.6
			c2.5,7.6,5.3,15.1,7.8,22.7c0.6,1.9,1.5,2.5,3.5,2.2c10.7-1.4,21.5-2.5,32.2-3.8c4.5-0.5,4.5-0.6,2.8-4.9
			c-6.1-16.1-12.1-32.2-18.2-48.2c-9.7-25.7-19.5-51.3-29.2-77.1c-0.9-2.4-2-3.1-4.5-2.8c-18.6,2-37.3,3.8-55.9,5.7
			c-4.6,0.5-4.6,0.4-4.6,5c0.2,23,0.4,45.9,0.6,68.9c0.2,20.4,0.2,40.7,0.4,61.1c0,3.9,0.2,4,4.1,3.6c9.7-1.2,19.3-2.4,29-3.5
			c4.7-0.5,4.6-0.5,4.6-5.2C-3913.7,1611.5-3913.6,1603.9-3913.6,1595.9z"/>
		<path class="st1" d="M-4351.8,1550.7c3.7,12.1,7.3,23.9,11,36.2c-7.3,0.8-14.2,1.6-21.7,2.5c0.6-4.2,1.2-7.9,1.7-11.5
			c1-7.8,2.2-15.6,3-23.4C-4357.4,1550.4-4354.9,1550.5-4351.8,1550.7z"/>
		<path class="st1" d="M-3898.7,1560.5c-5.5,0.7-10.5,1.3-16.2,2c0-12.7,0-25,0-37.4c1.5-0.1,3.4-1.1,4.4,1.5
			C-3906.7,1537.7-3902.8,1548.8-3898.7,1560.5z"/>
	</g>
</g>
<g>
	<rect x="-3162.4" y="1132.4" class="st6" width="1000" height="1000"/>
	<g>
		<path class="st7" d="M-2923.4,1547.7c-8.7-4.7-16.7-10.9-29.1-11.2c-10.2,0.1-20.7,5.8-27.4,12.6c-9.8,11.8-12.6,19.1-12.2,37.3
			c0,13.4,7,27.9,10,63c1.3,16.2-3.7,35.5-22.6,35.7c-12.3,0.7-20.4-14.7-18.3-29.5l-17.5,28.9c9.9,5.9,25,12.9,34.8,13.1
			c22,0,37.6-18.4,41.2-23.9c5.1-8.1,8.8-22.5,7.3-41.5c-0.7-13.3-9.2-43.9-9.2-57.3c-2.2-13.2,8.6-27.9,15.2-26
			c9.9-0.1,14.9,8.6,16.4,23.8L-2923.4,1547.7L-2923.4,1547.7z M-2302.4,1597.7c-5.5-3-16.5-6.5-24.3-6.7c-6.4,0.1-13.1,3.7-17.4,8
			c-6.2,7.5-11.1,11.7-10.9,23.3c0.6,8.5,3.4,16.9,11,38.1c3,10.6-0.2,21.9-12.1,22c-7.8,0.5-13-6.4-16.9-16.1l-10.3,17.9
			c6.3,3.7,16.6,8.8,22.8,8.9c12.5,2.5,29.7-7.3,35.1-18.3c3.5-12.4,0.5-15.1-0.5-27.1c-1.1-8.6-6.7-19.4-8.3-28.5
			c-1.6-9.3,5.8-17.9,10-16.7c6.3-0.1,11.9,6.3,12.9,15.9L-2302.4,1597.7L-2302.4,1597.7z M-2838.2,1557.4c-0.7-4.2-2.4-5-5.1-6
			l0.2-1.3h30.2l-19.7,48.2c9.4-4.6,16.7-5.2,21.5-5c9.5-0.6,17.3,11.5,14,22.8l-25.1,68.5c-1.6,4.8,0.8,5.3,4.2,6.5l-0.5,1.5h-35.2
			l0.7-2.1c3-0.4,5.7-2.1,8-5.9l24.7-63.6c2.4-7.1,3.1-13.1-4.6-12.7c-8.8,1.1-14.7,9.1-19.7,20.7l-22.1,55.6
			c-0.7,3,0.2,5.1,3.9,6.4l-0.7,1.6h-33.5l0.2-1.6c3.4-1.3,6.2-3.9,7.4-6.4L-2838.2,1557.4L-2838.2,1557.4z M-2869.9,1597
			c-5.6-2.8-12.3-5.2-19.9-5c-17.9,0-31.1,10.8-35.4,16c-8.5,8.8-24.4,34.2-24.1,55c0.7,11,3.3,31.3,24.7,31.7
			c11.1-0.2,26.2-8.5,32.4-18.6l-10.5-12.2c-6.2,11.8-11.1,21.3-20.8,17.9c-12-5.4-2.1-30.3,3.1-43c5.7-13.1,16.4-35.7,29.4-35.2
			c6,0.1,7.9,5.7,12.6,16.9L-2869.9,1597L-2869.9,1597z M-2668.2,1630.7c5.6-14.6,13.4-28,24.3-27.7c7.7,1.3,2.1,16.4-1.6,27.7
			H-2668.2z M-2620.7,1606.4c-2.3-9.3-11.5-15.1-19.3-15.3c-17.9,0-28.2,9.5-33.5,16c-8.5,8.8-26.4,34.2-26,55
			c0.7,11,3.3,31.3,24.7,31.7c11.1-0.2,27.3-8.9,33.5-19.1l-11.6-11.7c-6.2,11.8-11.1,21.3-20.8,17.9c-10.4-4.7-5-23.6,0.6-37.1
			l46.5-0.1C-2625.8,1641.5-2617.4,1619.3-2620.7,1606.4L-2620.7,1606.4z M-2416.9,1630.7c5.6-14.6,13.4-28,24.3-27.7
			c7.7,1.3,2.1,16.4-1.6,27.7H-2416.9L-2416.9,1630.7z M-2369.4,1606.4c-2.3-9.3-11.5-15.1-19.3-15.3c-17.9,0-28.2,9.5-33.5,16
			c-8.5,8.8-26.4,34.2-26,55c0.7,11,3.3,31.3,24.7,31.7c11.1-0.2,27.3-8.9,33.5-19.1l-11.6-11.7c-6.2,11.8-11.1,21.3-20.8,17.9
			c-10.4-4.7-5-23.6,0.6-37.1l46.5-0.1C-2374.4,1641.5-2366.1,1619.3-2369.4,1606.4L-2369.4,1606.4z M-2786.3,1593.4h31.9l-0.7,2.3
			c-2.2,0.1-4.1,1.7-4.6,3.7l-9.4,51l34-56.8h13.4l-7.7,56.8l30.2-51.5c1.1-1.3-1.1-3.7-4.1-4.6l0.2-1h25.5l-0.6,1.8
			c-3.3,0.6-5.9,2.3-6.9,4l-53.9,93.4h-15.2l6.5-52.5l-31.7,52.7l-16.7-0.1l14.7-93.6c0.2-1.8-1.7-3.4-5.3-3.7L-2786.3,1593.4z
			 M-2601.1,1609.4c1-2.3-0.6-6.9-5.9-5.9l0.1-2.1l26.3-7.7l2.2,8.3c5.9-6.4,16-11.7,23.6-11.1c16.9,1.3,18.6,17.9,18,30.3
			c-0.8,9.1-2.5,20.8-8.5,32.9c-8.9,17.4-21.3,39.6-44.7,40c-5.9-0.1-14.4-6.3-18.5-12.1l-15.6,39.6c-0.6,2.4,2.3,4.6,4.5,4.6
			l-0.6,2.1h-34.2l0.6-1.7c3.4-0.6,6.5-2.4,7.1-4.1L-2601.1,1609.4L-2601.1,1609.4z M-2564.3,1607.7c10.6,4.5,4.7,24.2-1.8,41.3
			c-6.5,17.2-18,35.4-28.3,29.7c-10.3-5.7-3.1-26.4,2.3-39.4C-2586.7,1626.3-2575,1603.2-2564.3,1607.7L-2564.3,1607.7z
			 M-2515.2,1609.4c1-2.3-0.6-6.9-5.9-5.9l0.1-2.1l26.3-7.7l2.2,8.3c5.9-6.4,16-11.7,23.6-11.1c16.9,1.3,18.6,17.9,18,30.3
			c-0.8,9.1-2.5,20.8-8.5,32.9c-9,17.4-21.3,39.6-44.7,40c-5.9-0.1-14.4-6.3-18.5-12.1l-15.6,39.6c-0.6,2.4,2.3,4.6,4.5,4.6
			l-0.6,2.1h-34.2l0.6-1.7c3.4-0.6,6.5-2.4,7.1-4.1L-2515.2,1609.4L-2515.2,1609.4z M-2478.4,1607.7c10.6,4.5,4.7,24.2-1.8,41.3
			c-6.5,17.2-18,35.4-28.3,29.7c-10.3-5.7-3.1-26.4,2.3-39.4C-2500.8,1626.3-2489.1,1603.2-2478.4,1607.7z M-2299.8,1698.7
			c8.2,0,15.6-6.9,15.6-15.7c0-8.7-7.4-15.4-15.6-15.4c-8.6,0-16,6.6-16,15.4C-2315.8,1691.8-2308.4,1698.7-2299.8,1698.7z
			 M-2312.6,1683c0-7.3,5.7-12.9,12.8-12.9c6.8,0,12.4,5.7,12.4,12.9c0,7.4-5.7,13.1-12.4,13.1
			C-2307,1696-2312.6,1690.4-2312.6,1683z M-2303.3,1684.3h3.1l4.7,7.5h3.1l-5.1-7.7c2.7-0.2,4.6-1.8,4.6-5c0-3.4-2.2-4.8-6.3-4.8
			h-6.9v17.5h2.7L-2303.3,1684.3L-2303.3,1684.3L-2303.3,1684.3z M-2303.3,1682v-5.6h3.7c1.9,0,3.9,0.5,3.9,2.7
			c0,2.7-1.9,2.9-4.1,2.9H-2303.3z"/>
	</g>
</g>
</svg>
